:SAMPLES-PER-SECOND 30
:FULLY-SPECIFIED
:DEGREES
130
root  16.44139928 38.87666717 -9.912288846 -4.98319006 -64.44580078 7.340270042
lowerback  8.77989006 1.71923995 -0.1851280034
upperback  1.820639968 2.26444006 0.9328020215
thorax  -3.077029943 1.114179969 0.813421011
lowerneck  -5.340690136 9.331959724 -4.714429855
upperneck  13.50090027 12.96339989 0.3405030072
head  4.613019943 6.111410141 1.527920008
lclavicle  0 -9.442270133e-015 7.951389973e-016
lhumerus  3.88564992 -6.691840172 66.92289734
lradius  2.895106381e-031 -2.021683229e-031 145.072998
lwrist  -3.531125038e-031 -0 -1.000880003
lhand  -1.496451383e-031 -27.76390076 20.11240005
lfingers  90 7.125020027 -90
lthumb  89.89689403 5.08795885 91.16245106
rclavicle  0 -9.442270133e-015 7.951389973e-016
rhumerus  5.569560051 22.64229965 -75.15450287
rradius  -2.649306427e-031 2.334527681e-031 138.6139984
rwrist  0 -0 -12.13780022
rhand  -7.920061211e-032 -33.2840004 9.303460121
rfingers  -90 -7.125020027 -90
rthumb  -92.93752616 -24.25625642 -97.11982154
rfemur  -3.065320015 13.62290001 6.15778017
rtibia  -0 0 43.15000153
rfoot  -0 -26.22089958 -14.66779995
rtoes  5.373923086 19.29304026 -105.8922705
lfemur  -18.57329941 4.926539898 -9.590029716
ltibia  -0 0 57.20460129
lfoot  -0 -17.12269974 9.903400421
ltoes  -4.250644065 -19.5611806 -102.515957
131
root  16.47340069 38.84977806 -10.00373345 -3.391930103 -64.68939972 5.744259834
lowerback  8.993599892 1.578909993 0.4764339924
upperback  1.850999951 2.146509886 1.221150041
thorax  -3.148910046 1.048869967 0.7483310103
lowerneck  -5.520050049 9.395540237 -4.754340172
upperneck  13.14500046 13.11530018 -0.118185997
head  4.560569763 6.166259766 1.403530002
lclavicle  0 -9.442270133e-015 7.951389973e-016
lhumerus  3.13499999 -7.035439968 67.19819641
lradius  2.908590804e-031 -2.002234644e-031 145.4570007
lwrist  -1.059337512e-030 -3.531125038e-031 -2.189529896
lhand  -1.496451383e-031 -27.76390076 20.11240005
lfingers  90 7.125020027 -90
lthumb  89.89689403 5.08795885 91.16245106
rclavicle  0 -9.442270133e-015 7.951389973e-016
rhumerus  5.510409832 22.66150093 -75.09500122
rradius  -2.647920763e-031 2.336099242e-031 138.5800018
rwrist  7.062250077e-031 1.765562519e-031 -12.28899956
rhand  -7.920061211e-032 -33.2840004 9.303460121
rfingers  -90 -7.125020027 -90
rthumb  -92.93752616 -24.25625642 -97.11982154
rfemur  -3.347199917 13.41149998 6.82035017
rtibia  -0 0 42.99940109
rfoot  -0 -26.49259949 -13.81299973
rtoes  5.373923086 19.29304026 -105.8922705
lfemur  -19.27700043 5.139530182 -8.539409637
ltibia  -0 0 57.77299881
lfoot  -0 -16.6067009 9.442420006
ltoes  -4.250644065 -19.5611806 -102.515957
132
root  16.50782157 38.85288989 -10.07237772 -1.932129979 -64.98349762 4.391799927
lowerback  9.038619995 1.443199992 1.053169966
upperback  1.932090044 2.023420095 1.463979959
thorax  -3.077199936 0.981760025 0.6902340055
lowerneck  -5.729780197 9.475020409 -4.875229836
upperneck  12.33329964 13.29090023 -0.5768370032
head  4.850729942 6.232910156 1.399199963
lclavicle  0 -9.442270133e-015 7.951389973e-016
lhumerus  2.487080097 -6.97713995 67.40540314
lradius  2.922497834e-031 -1.981880533e-031 145.8569946
lwrist  -3.531125038e-031 -3.531125038e-031 -2.784189939
lhand  -1.496451383e-031 -27.76390076 20.11240005
lfingers  90 7.125020027 -90
lthumb  89.89689403 5.08795885 91.16245106
rclavicle  0 -9.442270133e-015 7.951389973e-016
rhumerus  5.542029858 22.74370003 -75.03209686
rradius  -2.65162787e-031 2.33189058e-031 138.6710052
rwrist  0 -0 -12.72239971
rhand  -7.920061211e-032 -33.2840004 9.303460121
rfingers  -90 -7.125020027 -90
rthumb  -92.93752616 -24.25625642 -97.11982154
rfemur  -3.88854003 13.06610012 7.254980087
rtibia  -0 0 43.02730179
rfoot  -0 -26.24970055 -13.26970005
rtoes  5.373923086 19.29304026 -105.8922705
lfemur  -20.12969971 5.45799017 -7.57118988
ltibia  -0 0 58.54570007
lfoot  -0 -15.13609982 8.797519684
ltoes  -4.250644065 -19.5611806 -102.515957
133
root  16.53766632 38.89000059 -10.12442206 -0.6532890201 -65.35620117 3.300169945
lowerback  8.921589851 1.336869955 1.534440041
upperback  2.074359894 1.920719981 1.59968996
thorax  -2.852940083 0.9268540144 0.5772489905
lowerneck  -5.805019855 9.544119835 -4.791989803
upperneck  11.77630043 13.42759991 -1.133999944
head  4.707530022 6.292620182 1.19343996
lclavicle  0 -9.442270133e-015 7.951389973e-016
lhumerus  2.063050032 -6.635469913 67.39299774
lradius  2.936399803e-031 -1.961224167e-031 146.2610016
lwrist  -7.062250077e-031 -3.531125038e-031 -3.024349928
lhand  -1.496451383e-031 -27.76390076 20.11240005
lfingers  90 7.125020027 -90
lthumb  89.89689403 5.08795885 91.16245106
rclavicle  0 -9.442270133e-015 7.951389973e-016
rhumerus  5.620140076 22.80780029 -75.10510254
rradius  -2.659670377e-031 2.322713397e-031 138.8690033
rwrist  1.412450015e-030 1.765562519e-031 -13.16829967
rhand  -7.920061211e-032 -33.2840004 9.303460121
rfingers  -90 -7.125020027 -90
rthumb  -92.93752616 -24.25625642 -97.11982154
rfemur  -4.627349854 12.76920033 7.541540146
rtibia  -0 0 43.26890182
rfoot  -0 -25.74430084 -13.0340004
rtoes  5.373923086 19.29304026 -105.8922705
lfemur  -21.02079964 5.775239944 -6.702539921
ltibia  -0 0 59.42470169
lfoot  -0 -13.32400036 8.120759964
ltoes  -4.250644065 -19.5611806 -102.515957
